<svg width="23" height="30" viewBox="0 0 23 30" fill="none" xmlns="http://www.w3.org/2000/svg">
<path d="M11.5339 29.5C5.20926 29.5 0.333984 24.7565 0.333984 18.5636C0.333984 16.3236 0.729277 14.6106 1.51986 13.293C2.31045 12.1071 2.70574 11.5801 3.36456 10.9213C3.62809 10.7895 3.75985 10.526 4.02338 10.2624L4.41867 9.73537C5.0775 9.07655 5.20926 8.94479 5.86808 7.75891C6.5269 6.57303 7.05396 3.80599 7.05396 1.82952C7.05396 1.30247 7.31749 0.907174 7.84454 0.643645C8.23984 0.380117 8.76689 0.511881 9.16218 0.77541L9.82101 1.30247C11.2704 2.35658 13.1151 3.93775 14.5645 6.17774C15.4869 7.62715 16.4092 9.60361 16.9363 11.1848C17.1998 10.6577 17.4633 9.9989 17.5951 9.20832C17.7269 8.68126 18.1221 8.1542 18.6492 8.02244C19.1763 7.89068 19.8351 8.1542 20.0986 8.68126C21.021 10.2624 21.1527 10.526 21.9433 12.8977C22.7339 15.4012 22.8657 16.9824 22.8657 18.4318C22.7339 24.493 17.7269 29.5 11.5339 29.5ZM9.42571 4.46481C9.16218 6.17774 8.76689 7.89068 8.10807 9.07655C7.31749 10.3942 7.05396 10.7895 6.39514 11.5801L5.99984 11.9754C5.73632 12.2389 5.47279 12.5024 5.34102 12.766C4.81397 13.4248 4.41867 13.8201 3.75985 14.7424C3.2328 15.6648 2.96927 16.9824 2.96927 18.6953C2.96927 23.3071 6.79043 26.9965 11.5339 26.9965C16.2775 26.9965 20.0986 23.1753 20.0986 18.4318C20.0986 17.1142 20.0986 15.9283 19.308 13.8201C19.1763 13.4248 19.0445 13.1612 19.0445 12.8977C18.3857 13.9518 17.5951 14.6106 17.1998 14.8742C16.8045 15.1377 16.2775 15.2695 15.7504 15.0059C15.3551 14.7424 14.9598 14.3471 14.9598 13.8201C14.9598 13.4248 13.9057 9.86714 12.4563 7.62715C11.5339 6.30951 10.4798 5.25539 9.42571 4.46481Z" fill="#6F6E7C"/>
</svg>
