<svg width="29" height="27" viewBox="0 0 29 27" fill="none" xmlns="http://www.w3.org/2000/svg">
<path d="M26.944 9.53038C25.0459 3.20838 17.9282 -0.152686 11.1443 1.98132C4.36047 4.11533 0.441308 10.9531 2.34817 17.2573C2.66581 18.3051 3.13995 19.2976 3.75414 20.2004C3.86636 20.3675 3.91905 20.5682 3.90353 20.7695C3.84242 21.4453 3.63618 22.0993 3.29922 22.686C2.96226 23.2727 2.50272 23.7779 1.95273 24.1661C0.863101 24.913 1.02127 25.7133 2.30423 25.5621C3.88192 25.4141 5.38058 24.7951 6.61004 23.7838C6.71415 23.6608 6.85897 23.5803 7.01744 23.5574C7.17591 23.5345 7.3372 23.5707 7.4712 23.6593C10.5204 25.7044 14.1672 26.0423 18.1918 24.7708C24.9405 22.6723 28.8772 15.8346 26.944 9.53038Z" stroke="#6F6E7C" stroke-width="1.8" stroke-miterlimit="10"/>
</svg>
