<svg width="19" height="27" viewBox="0 0 19 27" fill="none" xmlns="http://www.w3.org/2000/svg">
<path d="M9.93137 18.7045C12.7903 18.7045 15.1154 16.3782 15.1154 13.5205V5.74455C15.1154 2.88557 12.7903 0.560547 9.93137 0.560547C7.0724 0.560547 4.74737 2.88557 4.74737 5.74455V13.5205C4.74737 16.3782 7.0724 18.7045 9.93137 18.7045ZM19.0034 13.5205V10.9285C19.0034 10.5848 18.8668 10.2552 18.6238 10.0121C18.3807 9.76909 18.0511 9.63255 17.7074 9.63255C17.3637 9.63255 17.034 9.76909 16.791 10.0121C16.5479 10.2552 16.4114 10.5848 16.4114 10.9285V13.5205C16.4114 17.0936 13.5044 20.0005 9.93137 20.0005C6.3583 20.0005 3.45137 17.0936 3.45137 13.5205V10.9285C3.45137 10.5848 3.31483 10.2552 3.07178 10.0121C2.82874 9.76909 2.4991 9.63255 2.15537 9.63255C1.81165 9.63255 1.48201 9.76909 1.23896 10.0121C0.995918 10.2552 0.859375 10.5848 0.859375 10.9285V13.5205C0.859375 18.0825 4.24582 21.8564 8.63537 22.4889V23.8885H4.74737C4.40365 23.8885 4.07401 24.0251 3.83096 24.2681C3.58792 24.5112 3.45137 24.8408 3.45137 25.1845C3.45137 25.5283 3.58792 25.8579 3.83096 26.101C4.07401 26.344 4.40365 26.4805 4.74737 26.4805H15.1154C15.4591 26.4805 15.7887 26.344 16.0318 26.101C16.2748 25.8579 16.4114 25.5283 16.4114 25.1845C16.4114 24.8408 16.2748 24.5112 16.0318 24.2681C15.7887 24.0251 15.4591 23.8885 15.1154 23.8885H11.2274V22.4889C15.6169 21.8564 19.0034 18.0825 19.0034 13.5205Z" fill="#8B88EF"/>
</svg>
