<svg width="23" height="29" viewBox="0 0 23 29" fill="none" xmlns="http://www.w3.org/2000/svg">
<path d="M2.65927 26.5591C2.25369 26.4188 1.90863 26.1438 1.68173 25.78C1.45484 25.4163 1.35987 24.9858 1.41269 24.5605C1.68304 22.0661 2.86697 19.7594 4.73707 18.0834C6.60718 16.4075 9.03157 15.4805 11.5446 15.4805C14.0576 15.4805 16.482 16.4075 18.3521 18.0834C20.2222 19.7594 21.4061 22.0661 21.6765 24.5605C21.7233 24.9803 21.6265 25.4036 21.4018 25.7615C21.1772 26.1194 20.8378 26.3909 20.439 26.5318C19.156 26.9679 16.6082 27.4403 11.5491 27.4403C6.49 27.4403 3.94225 26.9951 2.65927 26.5591Z" stroke="#6F6E7C" stroke-width="1.8" stroke-miterlimit="10"/>
<path d="M11.5495 12.5777C14.5194 12.5777 16.9271 10.174 16.9271 7.20877C16.9271 4.2436 14.5194 1.83984 11.5495 1.83984C8.5795 1.83984 6.17188 4.2436 6.17188 7.20877C6.17188 10.174 8.5795 12.5777 11.5495 12.5777Z" stroke="#6F6E7C" stroke-width="1.98" stroke-miterlimit="10"/>
</svg>
