<svg width="28" height="29" viewBox="0 0 28 29" fill="none" xmlns="http://www.w3.org/2000/svg">
<g clip-path="url(#clip0_1841_18855)">
<path d="M25.5138 2.25537L15.8084 0.544027C14.1752 0.256105 12.6122 1.35048 12.3242 2.98379L12.0933 4.29281C11.9784 4.30982 11.8637 4.33279 11.7498 4.36331L2.23051 6.91403C1.45452 7.12195 0.805901 7.61964 0.404238 8.31536C0.00257459 9.01113 -0.104171 9.82169 0.103797 10.5977L4.30242 26.2674C4.51034 27.0434 5.00803 27.692 5.70379 28.0937C6.16725 28.3613 6.68151 28.4979 7.20271 28.4979C7.46394 28.4979 7.72698 28.4636 7.98608 28.3941L17.5054 25.8434C18.2813 25.6355 18.93 25.1378 19.3316 24.4421C19.451 24.2354 19.5436 24.0184 19.6104 23.7954L21.6523 24.1554C21.8282 24.1864 22.0032 24.2014 22.176 24.2014C23.6074 24.2014 24.8796 23.173 25.1366 21.7156L27.9535 5.7397C28.2415 4.10644 27.147 2.54341 25.5138 2.25537ZM18.0474 22.5844C18.1419 22.9371 18.0934 23.3056 17.9108 23.6218C17.7282 23.9381 17.4334 24.1643 17.0807 24.2588L7.56139 26.8095C7.20867 26.9042 6.84026 26.8556 6.52401 26.6729C6.20777 26.4903 5.98153 26.1955 5.88704 25.8428L1.68841 10.1731C1.59392 9.82038 1.64242 9.4519 1.82502 9.13565C2.00761 8.8194 2.30242 8.59322 2.65514 8.49867L12.1744 5.94794C12.2922 5.91639 12.4118 5.90075 12.5305 5.90075C12.7674 5.90075 13.0012 5.96287 13.2118 6.0845C13.528 6.26709 13.7543 6.5619 13.8488 6.91463L18.0474 22.5844ZM16.4044 10.1139C16.4104 10.067 16.4167 10.0202 16.4249 9.97372C16.5134 9.4717 16.9516 9.1175 17.4447 9.1175C17.5042 9.1175 17.5645 9.12264 17.6251 9.13336C18.0067 9.20067 18.3166 9.47274 18.4335 9.8434C18.5255 10.135 18.7721 10.3513 19.0733 10.4044C19.3746 10.4575 19.6802 10.3386 19.8664 10.0961C20.1031 9.78778 20.4872 9.63811 20.8689 9.70537C21.1414 9.75344 21.3789 9.90476 21.5377 10.1314C21.6964 10.3581 21.7574 10.633 21.7093 10.9056C21.3831 12.7559 19.2977 14.3304 18.2613 15.0098C18.0014 14.6616 17.658 14.1659 17.3357 13.5895L16.4044 10.1139ZM26.3379 5.45484L23.5209 21.4308C23.39 22.1733 22.6795 22.6705 21.9371 22.5398L19.6246 22.1321L18.2212 16.8945C18.3044 16.879 18.3863 16.8505 18.4638 16.8082C18.6387 16.7129 22.7526 14.4363 23.3249 11.1904C23.5812 9.73698 22.6072 8.34598 21.1538 8.08973C20.5535 7.98391 19.9509 8.08546 19.4337 8.36059C19.0417 7.92512 18.5103 7.62358 17.9099 7.51771C17.206 7.39352 16.4956 7.55101 15.9099 7.9611C15.8865 7.97751 15.8639 7.99479 15.8411 8.0118L15.4334 6.49005C15.2255 5.71405 14.7278 5.06542 14.032 4.66375C13.9308 4.60529 13.8268 4.55383 13.7212 4.50795L13.9397 3.26865C14.0706 2.52629 14.7812 2.02881 15.5235 2.15967L25.2288 3.87102C25.9713 4.00194 26.4688 4.71242 26.3379 5.45484Z" fill="#6F6E7C"/>
</g>
<defs>
<clipPath id="clip0_1841_18855">
<rect width="27.9996" height="28" fill="white" transform="translate(0 0.5)"/>
</clipPath>
</defs>
</svg>
